<svg xmlns="http://www.w3.org/2000/svg" version="1.1" xmlns:xlink="http://www.w3.org/1999/xlink" width="1000" height="1000"><g clip-path="url(#SvgjsClipPath1137)"><rect width="1000" height="1000" fill="#000000"></rect><g transform="matrix(7.627037849175326,0,0,7.627037849175326,131.00390885689768,100)"><svg xmlns="http://www.w3.org/2000/svg" version="1.1" xmlns:xlink="http://www.w3.org/1999/xlink" width="96.76" height="104.89"><svg id="Lager_1" xmlns="http://www.w3.org/2000/svg" viewBox="0 0 96.76 104.89">
  <defs>
    <style>
      .cls-1 {
        fill: #fff;
      }

      .cls-2 {
        fill: #dba840;
      }

      .cls-3 {
        fill: #27b9d1;
      }
    </style>
  <clipPath id="SvgjsClipPath1137"><rect width="1000" height="1000" x="0" y="0" rx="300" ry="300"></rect></clipPath></defs>
  <path class="cls-3" d="M11.05,32.79c3.05,0,5.52,2.47,5.52,5.52v37.63c0,8.47,7.99,16.09,19.46,16.09h11.74c11.47,0,19.37-7.63,19.37-16.09v-37.63c0-3.05,2.47-5.52,5.52-5.52h6.83v43.7c0,16.66-10.65,28.4-31.27,28.4h-13.38c-20.62,0-31.27-11.74-31.27-28.4v-43.7h7.48Z"></path>
  <path class="cls-1" d="M4.78,28.65c-1.41,0-3.13-.37-3.84-1.72-.95-1.82-1.49-4.47-.09-9.1,1.06-3.5,7.4-12.28,13.43-11.85,2.07.15,3.81,1.1,5.3,1.5,2.38.64,5.2-1.22,6.9-2.66,2.65-2.25,6.22-4.02,8.59-4.49,4.38-.87,10.08-.23,17.22,5.4,2.38,1.88,5.57,3.7,8.31,2.93,3.9-1.09,7.01-.76,8.68-.57s4.28,1.06,6.5,2.61c2.05,1.44,5.47,4.33,6.84,8.45.99,2.99,1.05,7.16.76,8.59-.23,1.1-.97,2.48-3.03,2.02-1.69-.38-1.74-.62-4.14-.79-1.93-.14-5.38.2-7.19.67s-3.27,1.54-4.47,2.74c-2.15,2.14-4.33,5.41-6.04,5.92-3.48,1.03-5.99-2.05-9.44-4.2-2.56-1.59-9.43-5.17-14.5-3.79-3.72,1.02-5.45,1.94-9.67,2.28-4.49.36-7.15-1.33-10.65-3.06-2.39-1.18-7.16-.88-9.48-.88Z"></path>
  <path class="cls-2" d="M21.44,36.95s.08,29.91,0,39.87c-.05,5.74,6.41,9.27,10.78,9.82,6.26.78,13.5,1.03,19.12.02,3.81-.69,10.9-3.44,11.1-10.79.2-7.36.08-35.82.08-35.82,0,0-2.33,3.15-6.27,3.15-5.3,0-10.27-6.37-13.81-7.07s-8.13-.6-11.84.78c-3.71,1.38-9.17.05-9.17.05Z"></path>
  <path class="cls-3" d="M76.93,81.13l14.27-2.48c2.94-.85,5.56-3.2,5.56-6.27v-34.03c0-3.07-2.49-5.56-5.56-5.56h-11.83v6.4h7.25c2.3,0,4.17,1.87,4.17,4.17v24.7c0,2.36-.69,3.96-3.95,4.77l-8.29,1.3-1.62,7.01Z"></path>
</svg></svg></g></g></svg>